<?xml version="1.0" encoding="utf-8"?>
<!-- Generator: Adobe Illustrator 16.0.3, SVG Export Plug-In . SVG Version: 6.00 Build 0)  -->
<!DOCTYPE svg PUBLIC "-//W3C//DTD SVG 1.1//EN" "http://www.w3.org/Graphics/SVG/1.1/DTD/svg11.dtd">
<svg version="1.1" id="Layer_1" xmlns="http://www.w3.org/2000/svg" xmlns:xlink="http://www.w3.org/1999/xlink" x="0px" y="0px"
	 width="601.291px" height="178.709px" viewBox="0 0 601.291 178.709" enable-background="new 0 0 601.291 178.709"
	 xml:space="preserve">
<g>
	<path d="M134.799,138.06c0-0.274-0.127-0.655-0.381-1.143c0.253-0.43,0.381-0.928,0.381-1.494
		c-1.504-2.109-4.131-8.115-7.881-18.018c-0.333,0-0.703-0.996-1.113-2.988h0.381c-0.898-4.16-2.149-7.031-3.75-8.613
		c-2.754-8.887-4.131-15.771-4.131-20.654c-0.508-2.383-2.764-9.258-6.768-20.625c0.253-0.488,0.381-0.859,0.381-1.113
		c-0.43,0-0.801-0.751-1.113-2.256c0.586-1.758,1.084-2.637,1.494-2.637c0-3.32-1.631-6.943-4.893-10.869
		c0-2.637-0.996-5.263-2.988-7.881v-1.494h0.381c6.543,3.809,10.039,6.807,10.488,8.994c6.035,3.516,10.664,8.018,13.887,13.506
		v1.875c0,0.898,0.127,2.021,0.381,3.369l-0.381,0.762l0.381,2.256v0.352l-0.381,0.762c0.605,0,1.103,0.996,1.494,2.988h0.381
		l-0.381,2.637v1.494c-0.625,0-0.996,0.508-1.113,1.523c0.742,2.07,1.24,4.189,1.494,6.357h-0.381l0.381,0.762
		c0,0.254-0.127,0.381-0.381,0.381l0.381,0.732c-0.488,4.277-0.732,7.159-0.732,8.643v1.113c0,1.25-0.254,1.875-0.762,1.875
		c0.586,3.359,2.207,6.866,4.863,10.518l0.762,2.607c-1.504,3.34-2.256,5.596-2.256,6.768c1.132,5.742,2.139,8.613,3.018,8.613
		h0.352c0.762-7.617,2.011-14.111,3.75-19.482c0-1.992,0.508-3.994,1.523-6.006c-0.254-1.387-0.381-2.392-0.381-3.018
		c0.586-9.042,1.211-13.916,1.875-14.619c1.504-5.039,2.754-9.921,3.75-14.648l-0.381-0.732c0-2.441,2.128-7.07,6.387-13.887
		c1.211,0,3.457-2.128,6.738-6.387c3.007-2.89,5.761-6.142,8.262-9.756l1.875-0.352v0.352c-0.645,3.105-1.768,5.108-3.369,6.006
		c-0.898,0.645-2.021,2.773-3.369,6.387l0.352,0.762c-2.032,3.418-3.154,6.416-3.369,8.994c0,0.254,0.127,0.381,0.381,0.381
		c0,0.117-0.127,0.615-0.381,1.494l0.381,5.244h-0.381l0.381,0.762v1.113c0,0.254-0.127,0.381-0.381,0.381l0.381,0.762v1.113
		c-0.508,3.497-1.006,5.244-1.494,5.244l0.381,1.875c-0.664,2.208-2.422,3.838-5.273,4.893c0,0.567-1.494,3.819-4.482,9.756
		c0,3.711-0.752,6.084-2.256,7.119l-5.625,20.273h-0.762c0,3.496-1.377,8.74-4.131,15.732L134.799,138.06z"/>
	<path d="M211.909,145.619h-1.875c-1.25-5.391-2.12-10.323-2.607-14.795h0.352l-0.352-0.82c-0.254-4.61-0.381-8.174-0.381-10.693
		v-0.41l-0.381-2.461c0.253-0.469,0.381-1.152,0.381-2.051v-0.41c-0.684-6.309-1.816-9.463-3.398-9.463
		c-1.484-2.461-2.607-5.058-3.369-7.793l-0.732-0.439h-0.381c0.488,1.016,0.732,2.12,0.732,3.311
		c-1.739,0.703-2.607,1.66-2.607,2.871h-1.143c-0.488,0-0.732-0.273-0.732-0.82c-0.254,0-0.381,0.137-0.381,0.41
		c-4.121-1.641-6.25-2.461-6.387-2.461c-0.743,0-3.369,1.094-7.881,3.281c-0.996,0-1.494,0.293-1.494,0.879
		s-0.127,1.113-0.381,1.582c0.508,0.098,0.762,0.381,0.762,0.85v0.381c0,0.254-0.254,1.358-0.762,3.311v3.281
		c0,4.746-0.752,7.481-2.256,8.203c0,0.625-0.743,1.865-2.227,3.721c-0.645,3.281-1.27,4.922-1.875,4.922l0.352,0.82l-0.352,0.791
		l0.352,0.85c-0.488,1.894-0.732,3.545-0.732,4.951v0.41h-2.256c0-9.239,2.002-16.923,6.006-23.057c0-0.801,0.127-1.748,0.381-2.842
		l-0.762-1.641c0.449-3.007,0.82-4.512,1.113-4.512l-1.494-2.9l-2.607,0.41h-1.523c-0.391,0-0.889-0.546-1.494-1.641v-0.82
		c3.262,0,4.893-0.546,4.893-1.641c-0.762-1.367-1.143-3.701-1.143-7.002c0-1.835,0.625-5.391,1.875-10.664
		c0-1.777,0.751-6.435,2.256-13.975c0-0.879,0.879-4.443,2.637-10.693c0-1.445,0.127-2.676,0.381-3.691
		c-2.52-4.062-3.779-6.797-3.779-8.203c0.508-1.015,0.762-2.119,0.762-3.311c0-1.504-1.25-4.648-3.75-9.434
		c-0.508-0.898-0.762-1.582-0.762-2.051h0.381c1.621,2.208,2.998,3.702,4.131,4.482c0,1.036,2.256,2.686,6.768,4.951
		c4.609,0,7.607,1.104,8.994,3.311c0.996,0,1.494,1.23,1.494,3.691c0.839,0,1.846,1.23,3.018,3.691c2.578,0,5.449,2.598,8.613,7.793
		v4.102c0,0.508-0.371,1.611-1.113,3.311l0.352,0.791c0,0.254-0.498,1.084-1.494,2.49v0.41c1.758,2.422,2.637,4.336,2.637,5.742
		c0,0.293-0.127,0.713-0.381,1.26l0.381,0.791c-0.508,4.395-1.133,6.592-1.875,6.592c0.684,3.008,1.182,4.512,1.494,4.512
		c2.128-0.527,3.379-0.791,3.75-0.791v2.051c-0.43,0-1.299,0.684-2.607,2.051h-0.381c-0.488-0.273-0.869-0.41-1.143-0.41
		l-0.381,0.791v2.461c0,1.23,0.751,2.744,2.256,4.541v4.512c0.762,0.781,1.27,1.875,1.523,3.281c0.898,1.25,1.523,3.584,1.875,7.002
		c-0.508,2.461-0.762,4.238-0.762,5.332l0.381,2.08l-0.762,5.332c0.253,0.801,0.508,1.201,0.762,1.201l-0.381,2.051
		c0,1.563,0.253,3.076,0.762,4.541l-0.381,0.82c0.996,3.555,1.494,5.468,1.494,5.742c-0.254,1.367-0.508,2.051-0.762,2.051
		l0.381,0.85V145.619z M181.147,97.132c1.816,0,2.939-1.103,3.369-3.311c1.132,0,1.885-0.127,2.256-0.381
		c0.449,0.254,0.947,0.381,1.494,0.381h0.762c1.953-1.621,4.58-2.852,7.881-3.691c0-1.992-1.748-6.504-5.244-13.535
		c0-3.574-1.006-5.361-3.018-5.361c0-0.273-0.127-0.41-0.381-0.41c-4.493,4.57-6.866,8.135-7.119,10.693
		c0,0.469,0.625,3.34,1.875,8.613c-0.254,0.547-0.381,0.967-0.381,1.26l0.381,2.051c0,1.094-0.625,1.641-1.875,1.641V97.132z"/>
	<path d="M225.795,145.179h-0.762c-0.743-4.648-1.113-8.77-1.113-12.363v-1.143c0-0.567,0.127-1.065,0.381-1.494l-0.381-0.762
		c0-0.254,0.127-0.381,0.381-0.381c-0.45-2.559-0.831-5.303-1.143-8.232l0.381-0.762c-0.254-1.348-0.381-2.471-0.381-3.369
		l0.381-1.875c-2.5-5.43-3.75-9.687-3.75-12.773c-0.43,0-0.684-0.869-0.762-2.607v-5.244l-1.875-9.756v-2.637l1.143-6.387
		c-0.996-2.168-1.494-3.789-1.494-4.863c0-5.156,1.123-10.664,3.369-16.523l-6.387-8.232c-1.68-1.504-2.802-2.256-3.369-2.256
		v-0.381c1.758,0,2.637-0.498,2.637-1.494h2.988c2.48,0.996,4.229,1.494,5.244,1.494l1.875-0.381c0,1.602,1.875,2.48,5.625,2.637
		c10.917-1.25,17.919-1.875,21.006-1.875c4.902,0.996,9.287,2.12,13.154,3.369c1.348-0.253,2.471-0.381,3.369-0.381h0.762
		c3.75,2.266,5.625,4.395,5.625,6.387c-0.254,1.309-0.381,2.061-0.381,2.256c0.664,2.735,1.914,4.863,3.75,6.387l2.988,4.863
		c0.254,1.367,0.381,2.363,0.381,2.988h-0.381l0.381,0.762c0,3.223-1.504,7.725-4.512,13.506c0,1.406-0.996,2.911-2.988,4.512
		c-1.445,0.45-2.324,1.074-2.637,1.875c-1.133,0.957-2.256,1.455-3.369,1.494c-0.996-0.253-1.875-0.381-2.637-0.381l-4.102,2.637
		l-1.875-0.381h-0.381v0.381c2.5,0,3.75,1.25,3.75,3.75c0.645,2.793,1.768,4.668,3.369,5.625c1.25,1.973,2.373,4.219,3.369,6.738
		c0,0.274-0.117,0.655-0.352,1.143l0.732,3.369c-0.254,0-0.381,0.127-0.381,0.381c0.391,0,0.898,1.25,1.523,3.75
		c3.32,1.797,5.566,3.926,6.738,6.387c2.637,3.066,4.258,5.811,4.863,8.232c1.621,1.621,4.131,3.379,7.529,5.273l0.352,0.732
		c0,0.762-0.498,1.143-1.494,1.143c-2.813,0-5.439-1.25-7.881-3.75c-2.246-4.024-4.619-6.904-7.119-8.643
		c-2.129,0-4.756-2.999-7.881-8.994c-1.211-5.508-2.959-8.262-5.244-8.262c-2.383-3.496-4.014-5.244-4.893-5.244
		c-1.133-0.469-2.754-2.471-4.863-6.006c-5.762-1.738-8.643-3.613-8.643-5.625c-1.739-0.253-2.607-1.26-2.607-3.018
		c-0.254,0-0.381-0.117-0.381-0.352h0.381l1.494,1.113c1.777-0.253,2.773-0.381,2.988-0.381l1.875,0.381
		c3.848,0,7.48-1.504,10.898-4.512c2.09,0,5.342-2.626,9.756-7.881c1.25-2.734,1.875-5.107,1.875-7.119v-2.988
		c-0.84,0-2.344-2.128-4.512-6.387c-2.07,0-4.2-0.625-6.387-1.875l-1.875,0.381h-0.352c-0.567,0-1.074-0.127-1.523-0.381
		c-0.43,0.254-0.928,0.381-1.494,0.381c-0.274,0-0.645-0.127-1.113-0.381l-1.875,0.381c-1.563,0-3.066-0.381-4.512-1.143
		c-2.246,0.625-3.369,1.631-3.369,3.018c0,0.996-0.127,1.494-0.381,1.494l0.381,0.762c-2.285,7.247-4.16,10.869-5.625,10.869
		c0,0.743-0.752,2.246-2.256,4.512c0.742,1.329,1.494,3.321,2.256,5.977c-0.254,1.329-0.381,2.08-0.381,2.256
		c0.253,0.996,0.381,1.875,0.381,2.637h-0.381l0.381,0.762c-0.625,1.739-1.377,2.607-2.256,2.607
		c0.488,2.246,0.732,3.877,0.732,4.893c-1.25,1.992-1.992,3.74-2.227,5.244c-0.684,1.582-1.689,3.33-3.018,5.244
		c2.011,2.266,3.018,3.896,3.018,4.893h-0.381c0.253,0.469,0.381,0.84,0.381,1.113l-2.637,11.25c0,1.758,0.253,2.637,0.762,2.637
		l-0.762,5.244c0.253,1.308,0.381,2.559,0.381,3.75v1.494C228.051,142.953,227.299,144.457,225.795,145.179z"/>
	<path d="M299.185,140.316h-0.732c-0.664,0-1.788-4.756-3.37-14.268c0.234-3.731,0.352-6.855,0.352-9.375v-1.875
		c-0.996-3.906-1.621-9.531-1.875-16.875c-0.41,0-1.66-3.76-3.75-11.279c-0.996-1.113-1.494-2.236-1.494-3.369
		c0-1.348,1.504-6.475,4.512-15.381c0.313-3.281,0.557-5.156,0.732-5.625c-0.234-0.41-0.352-1.035-0.352-1.875
		c0.078-1.992,0.322-2.988,0.732-2.988c0-0.703-2.627-3.71-7.881-9.023c0-1.563-1.25-2.685-3.75-3.369
		c-1.992-1.152-2.988-2.773-2.988-4.863v-0.381h0.381c1.074,0.82,2.949,1.446,5.625,1.875c0.234-0.488,0.352-0.869,0.352-1.143
		c2.012,0.352,3.77,1.104,5.273,2.256c8.555-2.988,13.809-4.609,15.762-4.863c3.77,0.43,7.891,2.305,12.363,5.625
		c7.148,3.105,11.777,6.104,13.887,8.994c0.527,0,1.777,1.631,3.75,4.893c1.68,1.875,2.93,5.244,3.75,10.107
		c1.914,2.129,3.037,4.258,3.369,6.387v0.762l-0.381,2.256l0.381,0.732c-0.254,1.719-0.381,3.096-0.381,4.131v0.762
		c-0.293,0-1.162,1.124-2.607,3.369c-4.258,1.329-6.387,3.204-6.387,5.625c-1.68,1.622-4.307,2.871-7.881,3.75h-0.381
		c-0.977-0.253-1.846-0.381-2.607-0.381c-1.641,1.153-3.389,2.158-5.244,3.018c-2.324,0-4.58-0.751-6.768-2.256v-0.381l0.381-0.762
		l1.875,0.381h1.875c1.309,0,3.682-1.494,7.119-4.482c5.762-2.617,8.76-4.121,8.994-4.512c2.012-3.71,3.018-7.588,3.018-11.631
		c-0.391-5.761-0.889-8.643-1.494-8.643c-5-0.879-7.5-1.875-7.5-2.988c-3.027,0-5.527-1.123-7.5-3.369
		c-1.074,0-2.451-0.381-4.131-1.143c-4.258,0.918-6.387,1.797-6.387,2.637c0,0.391-0.254,0.889-0.762,1.494l0.381,1.875
		l-0.732,0.381l0.352,0.762v0.352c0,0.254-0.117,0.381-0.352,0.381c0,0.254,0.117,0.381,0.352,0.381l-0.352,1.875l1.875,6.387
		h-0.381c0,0.313,0.869,2.314,2.607,6.006h-0.732l0.732,1.494l-0.352,0.732v1.875c-1.309,0.684-2.188,1.816-2.637,3.398
		c-1.25,0.664-1.875,1.289-1.875,1.875l-1.875-0.381c0,0.254-0.127,0.381-0.381,0.381l0.381,0.732l-0.381,4.893
		c0.508,4.336,1.133,8.086,1.875,11.25v0.381c-0.566,1.915-1.318,3.535-2.256,4.863c-1.582,7.774-2.705,12.031-3.369,12.773v4.863
		l0.381,4.512c-0.508,0.078-0.762,0.322-0.762,0.732c0.078,0.508,0.332,0.762,0.762,0.762L299.185,140.316z"/>
	<path d="M384.878,145.619h-1.875c-1.25-5.391-2.119-10.323-2.607-14.795h0.352l-0.352-0.82c-0.254-4.61-0.381-8.174-0.381-10.693
		v-0.41l-0.381-2.461c0.254-0.469,0.381-1.152,0.381-2.051v-0.41c-0.684-6.309-1.816-9.463-3.398-9.463
		c-1.484-2.461-2.607-5.058-3.369-7.793l-0.732-0.439h-0.381c0.488,1.016,0.732,2.12,0.732,3.311
		c-1.738,0.703-2.607,1.66-2.607,2.871h-1.143c-0.488,0-0.732-0.273-0.732-0.82c-0.254,0-0.381,0.137-0.381,0.41
		c-4.121-1.641-6.25-2.461-6.387-2.461c-0.742,0-3.369,1.094-7.881,3.281c-0.996,0-1.494,0.293-1.494,0.879
		s-0.127,1.113-0.381,1.582c0.508,0.098,0.762,0.381,0.762,0.85v0.381c0,0.254-0.254,1.358-0.762,3.311v3.281
		c0,4.746-0.752,7.481-2.256,8.203c0,0.625-0.742,1.865-2.227,3.721c-0.645,3.281-1.27,4.922-1.875,4.922l0.352,0.82l-0.352,0.791
		l0.352,0.85c-0.488,1.894-0.732,3.545-0.732,4.951v0.41h-2.256c0-9.239,2.002-16.923,6.006-23.057c0-0.801,0.127-1.748,0.381-2.842
		l-0.762-1.641c0.449-3.007,0.82-4.512,1.113-4.512l-1.494-2.9l-2.607,0.41h-1.523c-0.391,0-0.889-0.546-1.494-1.641v-0.82
		c3.262,0,4.893-0.546,4.893-1.641c-0.762-1.367-1.143-3.701-1.143-7.002c0-1.835,0.625-5.391,1.875-10.664
		c0-1.777,0.752-6.435,2.256-13.975c0-0.879,0.879-4.443,2.637-10.693c0-1.445,0.127-2.676,0.381-3.691
		c-2.52-4.062-3.779-6.797-3.779-8.203c0.508-1.015,0.762-2.119,0.762-3.311c0-1.504-1.25-4.648-3.75-9.434
		c-0.508-0.898-0.762-1.582-0.762-2.051h0.381c1.621,2.208,2.998,3.702,4.131,4.482c0,1.036,2.256,2.686,6.768,4.951
		c4.609,0,7.607,1.104,8.994,3.311c0.996,0,1.494,1.23,1.494,3.691c0.84,0,1.846,1.23,3.018,3.691c2.578,0,5.449,2.598,8.613,7.793
		v4.102c0,0.508-0.371,1.611-1.113,3.311l0.352,0.791c0,0.254-0.498,1.084-1.494,2.49v0.41c1.758,2.422,2.637,4.336,2.637,5.742
		c0,0.293-0.127,0.713-0.381,1.26l0.381,0.791c-0.508,4.395-1.133,6.592-1.875,6.592c0.684,3.008,1.182,4.512,1.494,4.512
		c2.129-0.527,3.379-0.791,3.75-0.791v2.051c-0.43,0-1.299,0.684-2.607,2.051h-0.381c-0.488-0.273-0.869-0.41-1.143-0.41
		l-0.381,0.791v2.461c0,1.23,0.752,2.744,2.256,4.541v4.512c0.762,0.781,1.27,1.875,1.523,3.281c0.898,1.25,1.523,3.584,1.875,7.002
		c-0.508,2.461-0.762,4.238-0.762,5.332l0.381,2.08l-0.762,5.332c0.254,0.801,0.508,1.201,0.762,1.201l-0.381,2.051
		c0,1.563,0.254,3.076,0.762,4.541l-0.381,0.82c0.996,3.555,1.494,5.468,1.494,5.742c-0.254,1.367-0.508,2.051-0.762,2.051
		l0.381,0.85V145.619z M354.116,97.132c1.816,0,2.939-1.103,3.369-3.311c1.133,0,1.885-0.127,2.256-0.381
		c0.449,0.254,0.947,0.381,1.494,0.381h0.762c1.953-1.621,4.58-2.852,7.881-3.691c0-1.992-1.748-6.504-5.244-13.535
		c0-3.574-1.006-5.361-3.018-5.361c0-0.273-0.127-0.41-0.381-0.41c-4.492,4.57-6.865,8.135-7.119,10.693
		c0,0.469,0.625,3.34,1.875,8.613c-0.254,0.547-0.381,0.967-0.381,1.26l0.381,2.051c0,1.094-0.625,1.641-1.875,1.641V97.132z"/>
	<path d="M409.575,136.654h-1.143l-8.613-5.508c-2.188-2.442-4.561-6.23-7.119-11.367c-1.855,0-3.232-1.406-4.131-4.219
		c-2.754-1.855-4.131-5.664-4.131-11.426c0-0.273,0.127-0.41,0.381-0.41l-0.381-0.879c0-0.195,0.127-1.025,0.381-2.49
		c-0.996-2.714-1.748-5.82-2.256-9.316c1.387-7.305,3.008-12.783,4.863-16.436c1.211-1.934,2.715-5.596,4.512-10.986
		c1.641-1.348,3.516-5.439,5.625-12.275c3.613-6.738,7.236-10.107,10.869-10.107c3.516-0.703,5.273-1.973,5.273-3.809v-0.85h0.732
		c1.758,0.098,2.637,0.381,2.637,0.85l0.762-0.41l4.102,1.23l0.762-0.381c4.492,1.387,7.744,3.497,9.756,6.328
		c2.09,0.567,4.463,3.652,7.119,9.258l0.762,2.988h-0.381c0.254,0.547,0.381,0.957,0.381,1.23c-0.723,2.266-1.973,4.522-3.75,6.768
		l0.381,2.109v0.439c-1.68,3.008-3.311,7.08-4.893,12.217c-0.645,0-1.143,1.279-1.494,3.838H430.2c-0.352,0-0.723-0.429-1.113-1.289
		c0.449-3.105,1.074-4.658,1.875-4.658c-1.211-4.316-3.965-8.251-8.262-11.807c0-1.406-1.377-2.539-4.131-3.398
		c-1.25-1.113-1.875-2.09-1.875-2.93c-1.035,0-2.539,0.977-4.512,2.93c-1.738,0-2.607,0.85-2.607,2.549
		c-0.586,0-1.338,1.973-2.256,5.918c-1.563,1.973-3.438,2.959-5.625,2.959c-0.43,0.918-1.309,2.051-2.637,3.398h-1.113l0.381,4.219
		c0,1.641-1.006,4.727-3.018,9.258c0,0.527-1.377,1.377-4.131,2.549l-1.494,3.779c0.254,2.032,1.006,5.137,2.256,9.316v0.41
		c0,0.293-0.127,0.439-0.381,0.439l0.381,0.82c0,0.293-0.127,0.439-0.381,0.439c0.215,3.145,2.09,7.09,5.625,11.836
		c1.23,0.645,2.363,2.607,3.398,5.889c1.348,2.871,2.715,4.424,4.102,4.658c0,0.371,0.879,1.074,2.637,2.109
		c11.504,0,17.256-1.27,17.256-3.809c2.012-1.133,3.389-1.699,4.131-1.699h0.381v0.439c-1.27,5.078-5.273,7.617-12.012,7.617
		C414.966,135.237,412.466,135.794,409.575,136.654z"/>
	<path d="M489.819,145.941c-0.488-0.254-0.859-0.381-1.113-0.381v-6.768c0-0.215-0.254-2.715-0.762-7.5l0.381-4.482
		c-2.07-9.414-3.945-15.166-5.625-17.256c-0.879-0.82-2.256-3.33-4.131-7.529c-0.508-0.742-3.379-1.992-8.613-3.75
		c-3.457-2.304-5.967-3.672-7.529-4.102c-0.234,0-0.352,0.117-0.352,0.352l-1.875-0.352h-1.875c-2.5,0-3.75,1.25-3.75,3.75
		c-1.504,0.84-2.256,2.461-2.256,4.863c0.488,3.008,0.732,4.639,0.732,4.893c-0.742,5.273-1.494,9.268-2.256,11.982v1.523
		c-0.664,0-1.162,1.25-1.494,3.75l0.762,2.607c-0.254,1.348-0.381,2.471-0.381,3.369c0,0.273,0.127,0.654,0.381,1.143l-0.381,1.494
		l0.381,2.637c-0.762,4.492-1.641,6.738-2.637,6.738h-0.381c-1.25-5.606-2.246-12.734-2.988-21.387h0.381
		c0-0.234-0.127-0.352-0.381-0.352c0.254-3.769,0.381-6.523,0.381-8.262v-1.875c-0.508-4.238-0.762-6.611-0.762-7.119
		c0.508-2.852,0.762-4.853,0.762-6.006v-3.75c-2.012-6.387-3.018-10.39-3.018-12.012v-1.875c0-0.293,0.254-1.67,0.762-4.131v-3.75
		c0-2.383-0.254-6.006-0.762-10.869c0.762-2.578,2.52-7.588,5.273-15.029c0.234-2.383,0.479-3.76,0.732-4.131
		c-0.742-1.68-1.113-3.047-1.113-4.102v-0.381h0.381c2.539,2.5,3.906,3.75,4.102,3.75c0,1.915,1.26,5.537,3.779,10.869
		c0,0.743,0.244,1.992,0.732,3.75v1.494c0,0.254-0.127,0.381-0.381,0.381l0.762,1.523c-0.508,0.898-0.762,1.895-0.762,2.988v1.113
		c0,2.266,0.879,5.645,2.637,10.137l-0.381,1.875c0.254,2.129,0.381,3.877,0.381,5.244c-0.332,0.313-0.957,1.446-1.875,3.398v2.227
		c0.508,0.625,0.762,1.133,0.762,1.523h0.352c1.191-1.445,3.32-3.076,6.387-4.893c4.492-4.589,7.998-7.334,10.518-8.232
		c0.684-1.563,1.934-6.816,3.75-15.762c4.238-7.773,6.357-13.652,6.357-17.637h0.381c1.328,3.223,2.334,6.973,3.018,11.25
		c0.742,0,1.611,1.748,2.607,5.244h-0.381c0.762,1.329,1.143,3.086,1.143,5.273c-0.703,1.25-1.582,3.497-2.637,6.738
		c-1.172,1.426-2.295,4.424-3.369,8.994c-0.859,0-1.484,0.879-1.875,2.637c0,1.329-2.256,2.578-6.768,3.75
		c0,0.743-1.875,1.494-5.625,2.256c0,0.254-0.244,0.381-0.732,0.381v0.381c1.055,0,2.305,0.498,3.75,1.494l0.732-0.381h2.256
		c3.34,3.008,5.723,4.629,7.148,4.863c3.984,2.618,5.977,5,5.977,7.148l-0.352,0.732c0.742,1.016,1.24,2.891,1.494,5.625
		l-0.762,0.381c0.762,2.129,1.143,3.506,1.143,4.131c-1.426,0-2.305,1.622-2.637,4.863c1.25,3.477,2.246,7.236,2.988,11.279
		c0,1.25-0.244,1.875-0.732,1.875c0.254,0.469,0.381,0.839,0.381,1.113c0,0.508-0.127,0.762-0.381,0.762
		c0.254,3.75,0.498,5.625,0.732,5.625l-0.352,1.875v3.75C490.962,144.974,490.581,145.726,489.819,145.941z"/>
</g>
<g>
	<path fill="#010101" d="M70.097,129.66c0.091,0,0.247,0.207,0.324,0.453c0.156,0.478,0.066,1.422-0.153,1.706
		c-0.098,0.12-0.309,0.176-0.537,0.176c-0.312,0-0.654-0.104-0.781-0.291c-0.117-0.154-0.208-0.361-0.208-0.438
		C68.742,131.019,69.891,129.661,70.097,129.66L70.097,129.66z M76.087,125.717c0.041,0,0.094,0.028,0.171,0.083
		c0.143,0.104,0.272,0.504,0.351,1.008c0.078,0.465,0.195,1.047,0.273,1.293c0.065,0.245,0.13,0.633,0.13,0.865
		c0.001,0.22,0.053,0.453,0.13,0.49c0.064,0.04,0.13,0.272,0.13,0.505c0.001,0.246,0.091,0.686,0.195,0.981
		c0.117,0.337,0.196,1.009,0.196,1.732c0.001,0.943,0.053,1.254,0.26,1.604c0.34,0.551,0.373,0.824,0.101,0.824
		c-0.173,0-0.47-0.111-0.888-0.332c-1.371-0.723-1.358-0.646-1.313-4.976c0.023-2.017,0.086-3.775,0.137-3.904
		C75.999,125.772,76.032,125.717,76.087,125.717z M74.003,44.01c-0.308,0-0.604,0.038-0.692,0.121
		c-0.039,0.039-0.103,0.324-0.154,0.621c-0.115,0.673-0.334,1.306-0.657,1.939c-0.129,0.259-0.245,0.686-0.245,0.932
		c0,0.246-0.115,0.814-0.257,1.267c-0.141,0.44-0.256,1.087-0.256,1.422c0,0.351-0.051,0.621-0.103,0.621
		c-0.065,0-0.219,0.362-0.348,0.802c-0.129,0.453-0.399,1.126-0.606,1.501c-0.194,0.375-0.361,0.763-0.361,0.854
		c0,0.349-1.808,1.631-2.286,1.632c-0.104,0-0.207,0.077-0.245,0.181s-0.219,0.221-0.414,0.272c-0.414,0.104-0.801,0.428-0.8,0.673
		c0,0.091-0.116,0.284-0.258,0.428c-0.297,0.297-1.29,2.289-1.29,2.587c0.001,0.426-0.54,2.275-0.733,2.482
		c-0.104,0.116-0.231,0.582-0.296,1.048c-0.05,0.452-0.167,0.943-0.244,1.099c-0.077,0.143-0.142,0.466-0.154,0.698
		c-0.012,0.621-0.374,1.177-0.865,1.294c-0.84,0.221-2.286,1.684-2.492,2.511c-0.09,0.323-0.258,0.634-0.387,0.712
		c-0.142,0.064-0.246,0.207-0.246,0.311c0,0.219-1.186,2.521-1.496,2.91c-0.142,0.168-0.478,0.569-0.761,0.893
		c-0.297,0.337-0.606,0.803-0.697,1.022c-0.09,0.232-0.219,0.414-0.284,0.414c-0.064,0.001-0.116,0.168-0.116,0.362
		c0,0.31,0.104,0.413,0.647,0.685c0.349,0.167,0.647,0.348,0.647,0.399c0,0.065,0.643,0.097,1.295,0.097
		c0.636,0,1.279-0.029,1.342-0.087c0.052-0.052,0.336-0.168,0.633-0.26c0.219-0.066,0.38-0.1,0.529-0.1
		c0.141,0,0.271,0.029,0.427,0.086c0.232,0.09,0.426,0.206,0.427,0.258c0,0.051,0.142,0.103,0.309,0.103h0.001
		c0.182,0,0.491,0.168,0.711,0.4c0.324,0.322,0.401,0.504,0.402,0.956c0,0.311-0.051,0.582-0.103,0.607
		c-0.065,0.014-0.246,0.453-0.399,0.97c-0.142,0.505-0.348,1.01-0.438,1.1c-0.077,0.091-0.387,0.467-0.658,0.815
		c-0.284,0.362-0.801,0.932-1.162,1.295c-0.362,0.349-0.827,0.866-1.02,1.125c-0.233,0.298-0.517,0.505-0.775,0.569
		c-0.232,0.04-0.452,0.131-0.491,0.195s-0.413,0.246-0.839,0.389c-0.414,0.143-0.853,0.35-0.956,0.44
		c-0.104,0.092-0.452,0.299-0.775,0.453c-0.323,0.169-0.8,0.493-1.072,0.727c-0.258,0.246-0.529,0.439-0.594,0.439
		c-0.078,0-0.233,0.169-0.362,0.389c-0.116,0.207-0.283,0.388-0.361,0.388c-0.064,0-0.271,0.144-0.452,0.312
		c-0.439,0.44-0.969,0.971-1.188,1.229c-0.103,0.116-0.491,0.479-0.852,0.802l-0.671,0.597l0.001,0.865
		c0.001,0.879-0.23,2.018-0.412,2.018c-0.051,0-0.103,0.207-0.102,0.452c0,0.686-0.322,1.332-0.735,1.514
		c-0.193,0.077-0.478,0.272-0.62,0.428c-0.142,0.142-0.427,0.35-0.646,0.453c-0.207,0.104-0.581,0.414-0.838,0.673
		c-0.246,0.271-0.517,0.492-0.594,0.492c-0.078,0-0.478,0.389-0.891,0.854c-0.4,0.467-0.877,0.907-1.046,0.959
		c-0.168,0.064-0.31,0.207-0.31,0.311c0,0.09-0.091,0.207-0.194,0.259c-0.103,0.038-0.193,0.155-0.193,0.271
		c0,0.104-0.064,0.194-0.129,0.194c-0.078,0-0.129,0.077-0.129,0.155c0,0.091-0.297,0.479-0.646,0.854
		c-0.361,0.376-0.646,0.776-0.645,0.893c0,0.194-0.375,0.725-1.046,1.462c-0.181,0.195-0.438,0.635-0.567,0.971
		c-0.128,0.336-0.322,0.712-0.438,0.828c-0.336,0.336-0.916,1.242-0.916,1.41c0,0.091-0.065,0.155-0.129,0.155
		c-0.078,0-0.129,0.116-0.129,0.259c0,0.142,0.052,0.259,0.116,0.259h0.001c0.258,0,0.271,0.646,0.013,1.124
		c-0.141,0.271-0.258,0.582-0.257,0.686c0,0.104-0.128,0.452-0.283,0.776c-0.155,0.323-0.322,0.698-0.387,0.841
		c-0.245,0.607-0.387,0.931-0.555,1.228c-0.116,0.182-0.193,0.66-0.192,1.126c0,0.439-0.064,0.814-0.128,0.84
		c-0.168,0.052-0.436,2.495-0.319,2.935c0.039,0.168,0.092,2.159,0.109,4.421c0.029,3.09,0.069,4.15,0.186,4.278
		c0.117,0.104,0.169,0.621,0.17,1.591c0.015,0.892,0.08,1.615,0.197,1.938c0.246,0.672,0.247,1.15,0.001,1.357
		c-0.104,0.091-0.193,0.323-0.193,0.529c0,0.208-0.051,0.376-0.116,0.376c-0.439,0-0.54,2.716-0.113,3.024
		c0.156,0.117,0.208,0.453,0.248,1.643c0.04,1.201,0.092,1.538,0.287,1.719c0.117,0.129,0.22,0.31,0.22,0.399
		c0,0.104,0.104,0.284,0.233,0.413c0.116,0.13,0.453,0.582,0.738,0.995c0.285,0.427,0.673,0.865,0.867,0.969
		c0.388,0.232,0.686,0.735,0.492,0.852c-0.014,0.01-0.035,0.014-0.06,0.014c-0.09,0-0.239-0.052-0.379-0.142
		c-0.166-0.11-0.424-0.173-0.721-0.173c-0.052,0-0.104,0.002-0.159,0.006l-0.556,0.039l0,0.518c0.001,0.35-0.028,0.473-0.14,0.473
		c-0.016,0-0.034-0.002-0.054-0.007c-0.273-0.077-0.521-0.113-0.738-0.113c-0.584,0-0.942,0.268-0.941,0.748
		c0,0.367,0.013,0.388,0.594,0.388c0.013,0,0.027,0,0.041,0h0.005c0.36,0,0.68,0.051,0.719,0.128c0.05,0.083,0.24,0.124,0.474,0.124
		c0.31,0,0.698-0.07,0.949-0.203c0.199-0.104,0.403-0.15,0.761-0.15c0.177,0,0.391,0.012,0.66,0.032
		c1.073,0.076,1.551,0.23,2.832,0.862c0.414,0.207,1.048,0.412,1.384,0.451c0.349,0.038,0.634,0.115,0.634,0.18
		c0,0.181,0.892,0.349,2.198,0.438c1.681,0.101,3.361,0.332,3.361,0.474c0,0.052,0.484,0.103,1.085,0.103h0.014
		c0.608-0.002,1.099-0.054,1.099-0.118c0-0.065,0.478-0.182,1.06-0.261c1.044-0.135,5.211-0.35,6.501-0.35
		c0.209,0,0.343,0.006,0.375,0.019c0.091,0.038,1.551,0.075,3.258,0.099c2.96,0.035,5.352,0.252,5.352,0.485
		c0,0.064,1.344,0.099,2.7,0.099c1.361,0,2.736-0.035,2.781-0.105c0.194-0.311,1.732-0.417,6.993-0.475
		c5.3-0.059,6.658-0.151,6.657-0.474c0-0.052,0.168-0.13,0.388-0.183c0.349-0.064,0.387-0.116,0.387-0.595
		c0-0.284-0.065-0.517-0.129-0.517l0,0c-0.078,0-0.13-0.129-0.13-0.298c-0.014-0.374-0.467-1.73-0.714-2.118
		c-0.297-0.439-0.841-0.969-1.514-1.446c-0.336-0.245-0.647-0.542-0.686-0.671c-0.078-0.22-0.181-0.246-1.707-0.45
		c-0.375-0.038-0.75-0.167-0.828-0.258c-0.078-0.104-0.221-0.569-0.325-1.06c-0.091-0.479-0.287-1.422-0.442-2.08
		c-0.26-1.177-0.273-1.5-0.242-7.149c0.021-4.175,0.071-5.959,0.173-6.023c0.168-0.104,0.178-3.219,0.021-3.465
		c-0.052-0.09-0.169-1.008-0.248-2.042c-0.104-1.435-0.105-1.952,0.01-2.081c0.103-0.13,0.129-0.479,0.063-1.125
		c-0.091-0.943-0.091-0.943,0.347-1.409c0.685-0.726,0.839-0.958,1.2-1.722c0.193-0.4,0.399-0.725,0.464-0.725
		s0.233-0.232,0.374-0.518c0.142-0.284,0.375-0.595,0.517-0.672c0.142-0.091,0.258-0.233,0.258-0.324
		c0-0.077,0.194-0.22,0.439-0.311c0.465-0.169,0.672-0.557,0.516-0.957c-0.104-0.271,0.142-0.452,0.62-0.453
		c0.284,0,0.362-0.065,0.361-0.298c-0.014-0.504-0.234-1.292-0.402-1.396c-0.233-0.143-0.237-3.193-0.017-3.335
		c0.142-0.091,0.605-1.437,0.759-2.251c0.039-0.193,0.116-0.349,0.168-0.349c0.168,0,0.361-1.035,0.462-2.392
		c0.089-1.358,0.192-1.694,0.592-1.992c0.22-0.143,0.246-0.271,0.167-0.84c-0.131-1.034-0.106-1.785,0.124-4.086
		c0.14-1.525,0.19-2.805,0.137-4.523c-0.067-2.47-0.198-3.322-0.508-3.555c-0.104-0.064-0.259-0.439-0.35-0.814
		c-0.143-0.542-0.157-0.801-0.027-1.254c0.205-0.775,0.192-1.189-0.094-2.74c-0.209-1.138-0.3-1.37-0.637-1.719
		c-0.22-0.206-0.44-0.503-0.479-0.646c-0.051-0.143-0.155-0.258-0.246-0.258l0,0c-0.181,0-0.558-0.982-0.674-1.809
		c-0.052-0.324-0.182-0.815-0.312-1.1c-0.129-0.284-0.35-0.801-0.493-1.137c-0.259-0.594-0.427-0.813-1.424-1.859
		c-0.336-0.362-0.388-0.49-0.272-0.633c0.078-0.104,0.233-0.182,0.324-0.182c0.323-0.001,0.193-0.401-0.26-0.853
		c-0.245-0.245-0.478-0.439-0.517-0.439h-0.001c-0.193,0-1.1-1.085-1.229-1.446c-0.311-0.879-0.107-3.114,0.319-3.568
		c0.09-0.077,0.258-0.465,0.361-0.853c0.116-0.389,0.296-0.803,0.4-0.906c0.116-0.104,0.31-0.53,0.438-0.944
		s0.412-1.086,0.632-1.486c0.219-0.401,0.463-0.984,0.54-1.294c0.091-0.297,0.22-0.595,0.284-0.634
		c0.078-0.052,0.155-0.349,0.193-0.659c0.065-0.492,0.025-0.621-0.259-0.905c-0.363-0.361-0.828-0.464-2.134-0.476
		c-0.007,0-0.013,0-0.02,0c-0.098,0-0.184-0.001-0.26-0.001c-0.588,0-0.571,0.054-0.921,0.998c-0.09,0.245-0.284,0.492-0.426,0.556
		c-0.155,0.065-0.569,0.286-0.93,0.493c-0.52,0.302-0.813,0.423-1.083,0.423c-0.113,0-0.22-0.021-0.339-0.06
		c-0.349-0.115-0.439-0.425-0.441-1.512c-0.002-1.305-0.379-3.748-0.665-4.303c-0.13-0.272-0.247-0.608-0.247-0.763
		c0-0.44-1.245-2.882-1.581-3.101c-0.168-0.116-0.479-0.361-0.686-0.542c-0.22-0.181-0.634-0.426-0.944-0.542
		c-0.297-0.116-0.543-0.258-0.543-0.322C74.836,44.077,74.409,44.01,74.003,44.01z"/>
</g>
<g>
	<path fill="#010101" d="M532.495,129.66c0.207,0.001,1.355,1.359,1.355,1.605c0,0.077-0.09,0.284-0.207,0.438
		c-0.127,0.188-0.471,0.291-0.781,0.291c-0.229,0-0.439-0.056-0.537-0.176c-0.221-0.284-0.309-1.229-0.152-1.707
		C532.249,129.867,532.405,129.66,532.495,129.66L532.495,129.66z M526.632,125.891c0.051,0.129,0.113,1.888,0.139,3.904
		c0.045,4.331,0.057,4.254-1.314,4.975c-0.418,0.222-0.715,0.333-0.889,0.333c-0.27,0-0.238-0.273,0.102-0.824
		c0.207-0.35,0.26-0.659,0.26-1.604c0-0.724,0.08-1.396,0.197-1.732c0.104-0.296,0.193-0.735,0.195-0.981
		c0-0.232,0.064-0.465,0.129-0.505c0.078-0.038,0.129-0.271,0.131-0.491c0-0.232,0.064-0.62,0.129-0.864
		c0.078-0.246,0.195-0.828,0.273-1.293c0.078-0.504,0.209-0.905,0.352-1.008c0.076-0.054,0.129-0.084,0.17-0.084
		C526.562,125.716,526.595,125.772,526.632,125.891z M527.757,44.195c0,0.064-0.246,0.206-0.545,0.322
		c-0.309,0.116-0.723,0.361-0.943,0.542c-0.207,0.181-0.516,0.426-0.686,0.542c-0.336,0.219-1.58,2.66-1.58,3.101
		c-0.002,0.154-0.117,0.49-0.248,0.763c-0.283,0.555-0.662,2.998-0.664,4.303c-0.002,1.087-0.092,1.396-0.441,1.512
		c-0.119,0.038-0.227,0.06-0.34,0.06c-0.268,0-0.563-0.121-1.082-0.423c-0.361-0.207-0.775-0.428-0.93-0.493
		c-0.141-0.063-0.336-0.311-0.426-0.556c-0.352-0.944-0.334-0.998-0.922-0.998c-0.076,0-0.162,0.001-0.26,0.001
		c-0.006,0-0.012,0-0.02,0c-1.307,0.012-1.771,0.114-2.133,0.476c-0.285,0.284-0.324,0.413-0.26,0.905
		c0.037,0.311,0.113,0.607,0.193,0.659c0.064,0.039,0.193,0.337,0.283,0.634c0.076,0.31,0.32,0.893,0.539,1.294
		c0.221,0.4,0.506,1.072,0.633,1.486c0.129,0.414,0.322,0.841,0.439,0.944c0.104,0.104,0.283,0.518,0.398,0.906
		c0.104,0.388,0.271,0.775,0.361,0.853c0.426,0.454,0.629,2.689,0.318,3.568c-0.129,0.361-1.035,1.446-1.23,1.446l0,0
		c-0.039,0-0.271,0.194-0.518,0.439c-0.453,0.451-0.582,0.852-0.258,0.853c0.088,0,0.244,0.077,0.322,0.182
		c0.115,0.143,0.064,0.271-0.271,0.633c-0.998,1.046-1.166,1.266-1.424,1.859c-0.145,0.336-0.365,0.853-0.494,1.137
		s-0.26,0.775-0.313,1.1c-0.117,0.826-0.492,1.809-0.674,1.809l0,0c-0.09,0-0.193,0.115-0.246,0.258
		c-0.039,0.143-0.26,0.439-0.479,0.646c-0.338,0.349-0.428,0.581-0.637,1.719c-0.285,1.551-0.299,1.965-0.094,2.74
		c0.129,0.453,0.115,0.712-0.027,1.254c-0.09,0.375-0.246,0.75-0.352,0.814c-0.309,0.232-0.439,1.085-0.506,3.555
		c-0.055,1.719-0.004,2.998,0.135,4.523c0.23,2.301,0.256,3.052,0.125,4.086c-0.078,0.568-0.053,0.697,0.168,0.84
		c0.398,0.298,0.502,0.634,0.592,1.992c0.102,1.356,0.295,2.392,0.461,2.393c0.053,0,0.129,0.154,0.17,0.348
		c0.152,0.814,0.615,2.16,0.758,2.251c0.221,0.142,0.217,3.192-0.018,3.335c-0.168,0.104-0.387,0.892-0.402,1.395
		c0,0.233,0.078,0.299,0.361,0.299c0.479,0.001,0.725,0.182,0.621,0.452c-0.156,0.402,0.051,0.789,0.516,0.958
		c0.246,0.092,0.438,0.232,0.438,0.311c0,0.091,0.117,0.233,0.26,0.323c0.143,0.078,0.375,0.389,0.516,0.673
		c0.143,0.285,0.311,0.518,0.375,0.518s0.271,0.324,0.465,0.725c0.359,0.765,0.514,0.997,1.199,1.722
		c0.439,0.466,0.439,0.466,0.348,1.409c-0.066,0.646-0.041,0.996,0.063,1.125c0.117,0.129,0.115,0.646,0.01,2.08
		c-0.078,1.036-0.195,1.953-0.246,2.043c-0.158,0.246-0.148,3.36,0.02,3.464c0.104,0.065,0.152,1.85,0.174,6.025
		c0.031,5.648,0.02,5.972-0.242,7.148c-0.156,0.658-0.352,1.602-0.443,2.08c-0.102,0.491-0.246,0.956-0.322,1.06
		c-0.078,0.091-0.453,0.22-0.828,0.258c-1.525,0.205-1.629,0.23-1.707,0.449c-0.039,0.129-0.35,0.427-0.686,0.672
		c-0.674,0.477-1.217,1.007-1.516,1.446c-0.246,0.388-0.699,1.744-0.713,2.119c0,0.169-0.053,0.297-0.129,0.297l0,0
		c-0.064,0-0.131,0.232-0.131,0.518c0,0.478,0.039,0.528,0.387,0.594c0.221,0.052,0.389,0.131,0.389,0.183
		c-0.002,0.322,1.355,0.415,6.656,0.474c5.262,0.058,6.799,0.164,6.992,0.475c0.047,0.069,1.422,0.105,2.783,0.105
		c1.354,0,2.699-0.034,2.699-0.1c0-0.232,2.391-0.449,5.352-0.484c1.707-0.024,3.168-0.06,3.258-0.1
		c0.031-0.012,0.166-0.018,0.375-0.018c1.291,0,5.457,0.215,6.502,0.35c0.58,0.079,1.061,0.195,1.061,0.26
		c0,0.066,0.49,0.117,1.098,0.119h0.014c0.602,0,1.086-0.051,1.086-0.103c0-0.142,1.68-0.374,3.359-0.474
		c1.307-0.089,2.199-0.256,2.199-0.437c0-0.065,0.285-0.143,0.635-0.181c0.334-0.038,0.969-0.245,1.383-0.451
		c1.281-0.632,1.76-0.786,2.832-0.863c0.27-0.02,0.484-0.031,0.66-0.031c0.357,0,0.563,0.046,0.762,0.15
		c0.25,0.134,0.639,0.203,0.949,0.203c0.232,0,0.422-0.041,0.473-0.124c0.039-0.076,0.359-0.128,0.719-0.128h0.006
		c0.014,0,0.027,0,0.041,0c0.58,0,0.592-0.021,0.592-0.388c0.002-0.481-0.355-0.748-0.941-0.748c-0.217,0-0.465,0.036-0.736,0.113
		c-0.021,0.005-0.039,0.007-0.055,0.007c-0.111,0-0.141-0.123-0.139-0.473v-0.518l-0.557-0.039
		c-0.055-0.004-0.107-0.006-0.158-0.006c-0.297,0-0.555,0.063-0.721,0.173c-0.141,0.09-0.289,0.142-0.379,0.142
		c-0.025,0-0.047-0.005-0.061-0.013c-0.193-0.117,0.104-0.62,0.492-0.853c0.193-0.104,0.582-0.543,0.867-0.968
		c0.285-0.413,0.621-0.866,0.738-0.996c0.129-0.129,0.232-0.31,0.232-0.413c0-0.089,0.104-0.271,0.221-0.399
		c0.193-0.181,0.246-0.518,0.287-1.719c0.041-1.19,0.092-1.526,0.246-1.643c0.428-0.309,0.328-3.024-0.111-3.025
		c-0.064,0-0.117-0.167-0.117-0.375c0.002-0.206-0.088-0.438-0.191-0.529c-0.244-0.206-0.244-0.686,0.002-1.357
		c0.117-0.323,0.182-1.047,0.195-1.939c0.002-0.97,0.055-1.486,0.17-1.59c0.117-0.129,0.156-1.188,0.188-4.278
		c0.016-2.262,0.068-4.253,0.109-4.421c0.117-0.439-0.152-2.882-0.32-2.935c-0.064-0.025-0.129-0.4-0.129-0.84
		c0.002-0.465-0.076-0.943-0.191-1.126c-0.168-0.297-0.311-0.62-0.555-1.228c-0.064-0.143-0.232-0.518-0.387-0.842
		c-0.154-0.323-0.283-0.672-0.283-0.775c0-0.103-0.117-0.414-0.258-0.686c-0.258-0.479-0.244-1.124,0.014-1.124h0.002
		c0.064,0,0.115-0.117,0.115-0.259c0-0.143-0.051-0.258-0.129-0.258c-0.064,0-0.129-0.066-0.129-0.156
		c0-0.168-0.58-1.074-0.916-1.41c-0.115-0.116-0.311-0.492-0.439-0.829c-0.127-0.335-0.385-0.774-0.566-0.97
		c-0.672-0.737-1.045-1.268-1.045-1.462c0-0.115-0.285-0.517-0.645-0.893c-0.35-0.376-0.646-0.763-0.646-0.854
		c0-0.077-0.051-0.155-0.129-0.155c-0.064,0-0.129-0.09-0.129-0.193c0-0.116-0.09-0.233-0.193-0.271
		c-0.104-0.052-0.193-0.169-0.193-0.258c0-0.104-0.143-0.247-0.311-0.312c-0.168-0.053-0.646-0.491-1.045-0.959
		c-0.414-0.465-0.814-0.854-0.893-0.854s-0.348-0.22-0.594-0.49c-0.258-0.26-0.633-0.57-0.84-0.674
		c-0.219-0.104-0.504-0.312-0.645-0.453c-0.143-0.155-0.426-0.35-0.621-0.428c-0.412-0.182-0.734-0.828-0.734-1.514
		c0.002-0.245-0.051-0.452-0.102-0.452c-0.182,0-0.414-1.139-0.412-2.018v-0.865l-0.672-0.597c-0.359-0.322-0.748-0.686-0.852-0.802
		c-0.219-0.259-0.748-0.789-1.186-1.229c-0.182-0.168-0.389-0.312-0.453-0.312c-0.078,0-0.246-0.181-0.361-0.388
		c-0.129-0.22-0.285-0.389-0.361-0.389c-0.064,0-0.336-0.193-0.594-0.439c-0.271-0.233-0.75-0.558-1.072-0.727
		c-0.324-0.154-0.672-0.361-0.775-0.453c-0.104-0.091-0.543-0.298-0.957-0.44c-0.426-0.143-0.801-0.324-0.84-0.389
		c-0.037-0.064-0.258-0.155-0.49-0.195c-0.258-0.064-0.543-0.271-0.775-0.569c-0.193-0.259-0.656-0.776-1.02-1.125
		c-0.361-0.363-0.877-0.933-1.162-1.295c-0.27-0.349-0.58-0.725-0.658-0.815c-0.09-0.09-0.295-0.595-0.438-1.1
		c-0.154-0.517-0.334-0.956-0.398-0.97c-0.053-0.025-0.104-0.297-0.104-0.607c0-0.452,0.078-0.634,0.402-0.956
		c0.221-0.232,0.529-0.4,0.711-0.4h0.002c0.166,0,0.309-0.052,0.309-0.103c0-0.052,0.195-0.168,0.426-0.258
		c0.158-0.057,0.287-0.086,0.428-0.086c0.148,0,0.311,0.033,0.529,0.1c0.297,0.092,0.582,0.208,0.633,0.26
		c0.064,0.058,0.707,0.087,1.344,0.087c0.65,0,1.295-0.031,1.295-0.097c0-0.052,0.297-0.232,0.646-0.399
		c0.545-0.271,0.646-0.375,0.646-0.685c0-0.194-0.051-0.361-0.115-0.362c-0.064,0-0.193-0.182-0.283-0.414
		c-0.092-0.22-0.402-0.686-0.697-1.022c-0.285-0.323-0.619-0.725-0.762-0.893c-0.311-0.389-1.496-2.691-1.496-2.91
		c0-0.104-0.104-0.246-0.244-0.311c-0.129-0.078-0.297-0.389-0.389-0.712c-0.205-0.827-1.65-2.29-2.49-2.511
		c-0.49-0.117-0.852-0.673-0.865-1.294c-0.014-0.232-0.076-0.556-0.154-0.698c-0.078-0.155-0.193-0.646-0.244-1.099
		c-0.064-0.466-0.193-0.932-0.297-1.048c-0.191-0.207-0.734-2.057-0.732-2.482c0-0.298-0.992-2.29-1.289-2.587
		c-0.143-0.144-0.258-0.337-0.258-0.428c0-0.245-0.389-0.568-0.801-0.673c-0.195-0.052-0.377-0.169-0.414-0.272
		c-0.039-0.104-0.143-0.181-0.246-0.181c-0.477-0.001-2.285-1.283-2.285-1.632c0-0.091-0.168-0.479-0.361-0.854
		c-0.207-0.375-0.477-1.048-0.605-1.501c-0.129-0.439-0.283-0.802-0.348-0.802c-0.053,0-0.104-0.271-0.104-0.621
		c0-0.335-0.115-0.981-0.256-1.422c-0.143-0.452-0.258-1.021-0.258-1.267c0.002-0.246-0.115-0.673-0.244-0.932
		c-0.322-0.634-0.541-1.267-0.656-1.939c-0.051-0.297-0.115-0.582-0.154-0.621c-0.09-0.083-0.385-0.121-0.691-0.121
		C528.185,44.01,527.757,44.077,527.757,44.195z"/>
</g>
</svg>
